<svg xmlns="http://www.w3.org/2000/svg" viewBox="0 0 67.78 63.26"><defs><style>.cls-1{fill:#306cdc;}</style></defs><title>alta-definicion</title><g id="Diseño"><path class="cls-1" d="M64.42,13.56H55V1a1,1,0,0,0-1.13-1H13.65C13,0,12.8.39,12.8,1V13.56H3.07A3.18,3.18,0,0,0,0,16.86V45.42A3.39,3.39,0,0,0,3.07,49H8.28V60.23a3.1,3.1,0,0,0,3.25,3H56c1.77,0,3.53-1.26,3.53-3V49h4.93a3.63,3.63,0,0,0,3.36-3.53V16.86A3.42,3.42,0,0,0,64.42,13.56ZM52.72,2.26V14.73h0v3.32H15.06V14.75h0V2.26ZM12.8,15.82V19c0,.61.24,1.36.85,1.36h40.2c.61,0,1.13-.75,1.13-1.36V15.82h3.77v7.39c0,1.14-.58,2.4-1.72,2.4H10.48a2.48,2.48,0,0,1-2.19-2.4V15.82ZM56,61H11.53c-.56,0-1-.21-1-.77V47.54h0V39.92H12.8v18.2c0,.61.24,1.38.85,1.38h40.2c.61,0,1.13-.78,1.13-1.38V39.92h2.26V60.23C57.24,60.79,56.52,61,56,61ZM15.06,39.92H52.72V57.24H15.06Zm50.42,5.63a1.17,1.17,0,0,1-1.06,1.15H59.5V39.92h.7a1.13,1.13,0,0,0,0-2.26H7.3a1.13,1.13,0,0,0,0,2.26h1v6.78H3.07c-.56,0-.81-.71-.81-1.27V16.86c0-.56.25-1,.81-1H6v7.39c0,2.36,2.1,3.91,4.45,3.91H57a3.74,3.74,0,0,0,4-3.91V15.82h3.42a1.11,1.11,0,0,1,1.1,1V45.42Z"/><path class="cls-1" d="M56,29.51a3.21,3.21,0,1,0,3.21,3.21A3.22,3.22,0,0,0,56,29.51Zm0,4.23a1,1,0,1,1,1-1A1,1,0,0,1,56,33.74Z"/><path class="cls-1" d="M48.56,30.57a2.16,2.16,0,1,0,2.16,2.16A2.16,2.16,0,0,0,48.56,30.57Zm0,2.16a0,0,0,1,1,.08,0S48.52,32.77,48.52,32.73Z"/><path class="cls-1" d="M18.66,13.4l2.4-2.4,4.51,4.51A1.1,1.1,0,1,0,27.12,14l-.81-.81,4.27-4.27,6.63,6.62a1.09,1.09,0,0,0,.78.31H49.62a1.13,1.13,0,0,0,0-2.26H38.43l-7.08-7a1.08,1.08,0,0,0-.78-.3,1.11,1.11,0,0,0-.78.33l-5,5L21.83,8.67a1.1,1.1,0,0,0-1.55,0L17.1,11.85a1.1,1.1,0,0,0,1.55,1.55Z"/><path class="cls-1" d="M41.15,11.61A3.21,3.21,0,1,0,37.94,8.4,3.22,3.22,0,0,0,41.15,11.61Zm0-4.23a1,1,0,1,1-1,1A1,1,0,0,1,41.15,7.38Z"/></g></svg>