<svg xmlns="http://www.w3.org/2000/svg" viewBox="0 0 67.78 56.64"><defs><style>.cls-1{fill:#306cdc;}</style></defs><title>diseno-grafico</title><g id="Diseño"><path class="cls-1" d="M66.69,16.47a1.12,1.12,0,0,0-1-.61h-6V12a1.68,1.68,0,0,0-1.38-1.46H27.19V1.25C27.19.62,26.93,0,26.3,0H19.21a1.19,1.19,0,0,0-1.08,1.25v9.32h-6.8V3A1.63,1.63,0,0,0,10,1.51H5.48A5.58,5.58,0,0,0,1.56,3.34,5.94,5.94,0,0,0,0,7.51V45.69a5.54,5.54,0,0,0,1.57,4,5.42,5.42,0,0,0,3.91,1.66H30.21v4.12a1.19,1.19,0,0,0,1.17,1.17H56.55a1.16,1.16,0,0,0,.81-2L54,51.36h4.23c.63,0,1.38-.51,1.38-1.14V26.43h6a1.1,1.1,0,0,0,1-.58A10.59,10.59,0,0,0,66.69,16.47ZM20.39,34.74H22a1.13,1.13,0,1,0,0-2.27H20.39V28.7H22a1.13,1.13,0,1,0,0-2.27H20.39v-3H22a1.13,1.13,0,1,0,0-2.27H20.39v-3H22a1.13,1.13,0,1,0,0-2.27H20.39v-3H22a1.13,1.13,0,1,0,0-2.27H20.39v-3H22a1.13,1.13,0,1,0,0-2.27H20.39v-3h4.53V37H20.39ZM3.17,4.94A3.36,3.36,0,0,1,5.48,3.78H9.06V40H5.48a4.78,4.78,0,0,0-3.21,1.11V7.51A3.7,3.7,0,0,1,3.17,4.94Zm29.3,49.43V33.07L53.79,54.38ZM57.4,49.09H51.76L32.19,29.51a1.17,1.17,0,0,0-1.26-.25,1.15,1.15,0,0,0-.72,1.05V49.09H5.48a3.18,3.18,0,0,1-2.31-1,3.31,3.31,0,0,1-.91-2.4h0v0a3.24,3.24,0,0,1,3.21-3.35H10a1.3,1.3,0,0,0,1.32-1.14V12.84h6.8V38.09a1.13,1.13,0,0,0,1.08,1.19H26.3c.63,0,.89-.55.89-1.19V12.84H57.4v3H43.86a1.13,1.13,0,0,0-.64.17l-6.28,4.19a1.14,1.14,0,0,0,0,1.89l6.28,4.17a1.11,1.11,0,0,0,.64.15H57.4Zm-15-29.79.87-.58a9.51,9.51,0,0,1,0,4.87L42.39,23a5.16,5.16,0,0,0,0-3.7Zm-1.94,1.85a2.88,2.88,0,0,1,0,.51l-.77-.51.77-.51A2.87,2.87,0,0,1,40.45,21.16Zm19.62,3H45.46a10.5,10.5,0,0,1,.35-1.51H60.57A8.07,8.07,0,0,0,60.07,24.17ZM45.81,19.64a10.47,10.47,0,0,1-.35-1.51H60.07a8.07,8.07,0,0,0,.5,1.51Zm19.1,4.53H62.49a10.43,10.43,0,0,0,0-6h2.42A8.19,8.19,0,0,1,64.92,24.17Z"/></g></svg>