<svg xmlns="http://www.w3.org/2000/svg" viewBox="0 0 69.02 52.75"><defs><style>.cls-1{fill:#306cdc;}</style></defs><title>librosArtboard 20</title><g id="Diseño"><path class="cls-1" d="M65.39,2.94V1.32A1.14,1.14,0,0,0,64.33.39H40.26a9.78,9.78,0,0,0-3.62.75s-.06-.06-.09,0a8,8,0,0,0-2.67,1.55H4.65A4.24,4.24,0,0,0,.62,7V45.77a4.24,4.24,0,0,0,4,4.32H27v1.32c0,.46.71.94,1.16.94h6.28a.94.94,0,0,0,.84-.94V50.1H64.33a4.24,4.24,0,0,0,4.07-4.19V6.84A4.19,4.19,0,0,0,65.39,2.94Zm-1.51-1V38H41.45A11.8,11.8,0,0,0,32.25,43V10.31A8.25,8.25,0,0,1,36,3.3V29.79a.76.76,0,1,0,1.51,0V2.55a9.31,9.31,0,0,1,2.74-.65Zm0,37.66v6H32.53a9.83,9.83,0,0,1,8.92-6Zm3,6.36a2.86,2.86,0,0,1-2.56,2.68H34.42c-.46,0-.66,0-.66.47v1.79H29.24v-4c0-.45-.67-.82-1.13-.82s-1.13.37-1.13.82v1.72H4.65a2.85,2.85,0,0,1-2.53-2.82V7A2.85,2.85,0,0,1,4.65,4.16H27V41.93c0,.45.67.82,1.13.82s1.13-.37,1.13-.82V4.16h3.12a12.06,12.06,0,0,0-1.61,6.15V46.19c0,.4.14.78.53.85,0,0-.05,0,0,0H64.33c.46,0,1.05-.44,1.05-.89V4.66a2.53,2.53,0,0,1,1.51,2.18Zm-25.83-4.1H61.53a.76.76,0,1,1,0,1.51H41.06a.76.76,0,1,1,0-1.51ZM26.48,45.58a.77.77,0,0,1-.82.75H4.17a.76.76,0,1,1,0-1.51H25.66A.77.77,0,0,1,26.48,45.58ZM43,33.53H58.41a1.09,1.09,0,0,0,.95-1.18V11.06a.84.84,0,0,0-.95-.88H43a.82.82,0,0,0-.93.88V32.35C42,32.93,42.39,33.53,43,33.53ZM44.3,12.44H57.1V31.27H44.3Zm11.17.75H45.91c-.57,0-.86.56-.86,1.13v13c0,.57.29.94.86.94h9.55a.84.84,0,0,0,.88-.94v-13C56.35,13.75,56,13.19,55.47,13.19Zm-5.89,6.1a1.12,1.12,0,1,1,1.12,1.12A1.12,1.12,0,0,1,49.57,19.29Zm0,6.71V23.6a1.13,1.13,0,0,1,2.26,0V26Zm4.86,0h-.34V23.6a3.28,3.28,0,0,0-.95-2.15,3.14,3.14,0,0,0,.79-2.16,3.21,3.21,0,0,0-6.43,0,3.1,3.1,0,0,0,.75,2.16,3.27,3.27,0,0,0-.94,2.15V26h0V15.45h6.78V26.28ZM9.15,23H20.38c.57,0,1.33-.19,1.33-.77V11.06c0-.57-.75-.88-1.33-.88H9.15a.89.89,0,0,0-1,.88V22.22C8.15,22.79,8.58,23,9.15,23Zm1.25-3,2.67-2.58,3,4H10.41V20Zm8.28,1.17-1.93-2.45,1.12-1.4,1.56,1.57v2.58h-.75Zm.75-8.74v3.45L18.55,15a1.1,1.1,0,0,0-.84-.32,1.07,1.07,0,0,0-.78.41L15.45,17l-1.56-2a1,1,0,0,0-.75-.39.81.81,0,0,0-.68.3l-2,2.11V12.44ZM9.15,33.53H20.38a1.44,1.44,0,0,0,1.33-1.18v-7.1c0-.57-.75-.76-1.33-.76H9.15c-.57,0-1,.19-1,.76v7.1A1.13,1.13,0,0,0,9.15,33.53Zm1.25-2.26V29.95c0,.38.83.73,1.66.73a2.62,2.62,0,0,0,2.14-1.2c.34-.4.39-.46.58-.46s.26.06.6.46a2.83,2.83,0,0,0,2.24,1.2c.83,0,1.06-.35,1.82-.73v1.32Zm9-5.27v1.16a2.28,2.28,0,0,0-1.21,1c-.34.4-.45.46-.64.46s-.28-.06-.62-.46a2.62,2.62,0,0,0-4.41,0c-.34.4-.42.46-.61.46s-.16-.06-.5-.46-1.05-.73-1.05-1V26Z"/></g></svg>