<svg xmlns="http://www.w3.org/2000/svg" viewBox="0 0 67.78 67.78"><defs><style>.cls-1{fill:#306cdc;}</style></defs><title>laboratorio</title><g id="Diseño"><path class="cls-1" d="M11.16,5.88a1.09,1.09,0,0,0-1.09-1.09H5.88A1.09,1.09,0,0,0,4.78,5.88v3.4a1.09,1.09,0,0,0,1.09,1.09h4.19a1.09,1.09,0,0,0,1.09-1.09ZM8.77,8H6.38v-.8H8.77V8Z"/><path class="cls-1" d="M11.16,13.05A1.09,1.09,0,0,0,10.07,12H5.88a1.09,1.09,0,0,0-1.09,1.09v3.4a1.09,1.09,0,0,0,1.09,1.09h4.19a1.09,1.09,0,0,0,1.09-1.09Zm-2.39,2.1H6.38v-.8H8.77v.8Z"/><path class="cls-1" d="M11.16,21a1.09,1.09,0,0,0-1.09-1.09H5.88A1.09,1.09,0,0,0,4.78,21v3.39a1.09,1.09,0,0,0,1.09,1.09h4.19a1.09,1.09,0,0,0,1.09-1.09Zm-2.39,2.1H6.38v-.8H8.77v.8Z"/><path class="cls-1" d="M11.16,28.21a1.09,1.09,0,0,0-1.09-1.09H5.88a1.09,1.09,0,0,0-1.09,1.09v3.4a1.09,1.09,0,0,0,1.09,1.09h4.19a1.09,1.09,0,0,0,1.09-1.09ZM8.77,31.1H6.38V29.5H8.77V31.1Z"/><path class="cls-1" d="M11.16,36.18a1.09,1.09,0,0,0-1.09-1.09H5.88a1.09,1.09,0,0,0-1.09,1.09v3.4a1.09,1.09,0,0,0,1.09,1.09h4.19a1.09,1.09,0,0,0,1.09-1.09Zm-2.39,2.1H6.38v-.8H8.77v.8Z"/><path class="cls-1" d="M11.16,44.15a1.09,1.09,0,0,0-1.09-1.09H5.88a1.09,1.09,0,0,0-1.09,1.09v3.4a1.09,1.09,0,0,0,1.09,1.09h4.19a1.09,1.09,0,0,0,1.09-1.09Zm-2.39,2.1H6.38V44.66H8.77v1.59Z"/><path class="cls-1" d="M11.16,51.33a1.09,1.09,0,0,0-1.09-1.09H5.88a1.09,1.09,0,0,0-1.09,1.09v3.4a1.09,1.09,0,0,0,1.09,1.09h4.19a1.09,1.09,0,0,0,1.09-1.09Zm-2.39,2.1H6.38v-.8H8.77v.8Z"/><path class="cls-1" d="M11.16,59.31a1.09,1.09,0,0,0-1.09-1.09H5.88a1.09,1.09,0,0,0-1.09,1.09V62.7a1.09,1.09,0,0,0,1.09,1.09h4.19a1.09,1.09,0,0,0,1.09-1.09ZM8.77,61.4H6.38V59.81H8.77V61.4Z"/><path class="cls-1" d="M63,4.28A1.09,1.09,0,0,0,61.9,3.19H57.71a1.09,1.09,0,0,0-1.09,1.09v3.4a1.09,1.09,0,0,0,1.09,1.09H61.9A1.09,1.09,0,0,0,63,7.68ZM60.6,6.38H59v-.8H60.6Z"/><path class="cls-1" d="M62.09,11.16H57.74a1.09,1.09,0,0,0-1.13,1.05v3.26a1.28,1.28,0,0,0,1.13,1.27h4.35c.6,0,.9-.66.9-1.27V12.22C63,11.61,62.7,11.16,62.09,11.16ZM60.6,14.35H59v-.8H60.6Z"/><path class="cls-1" d="M63,20.23a1.09,1.09,0,0,0-1.09-1.09H57.71a1.09,1.09,0,0,0-1.09,1.09v3.4a1.09,1.09,0,0,0,1.09,1.09H61.9A1.09,1.09,0,0,0,63,23.63Zm-2.39,2.1H59V20.73H60.6Z"/><path class="cls-1" d="M63,27.41a1.09,1.09,0,0,0-1.09-1.09H57.71a1.09,1.09,0,0,0-1.09,1.09v3.4a1.09,1.09,0,0,0,1.09,1.09H61.9A1.09,1.09,0,0,0,63,30.8ZM60.6,29.5H59v-.8H60.6Z"/><path class="cls-1" d="M63,35.38a1.09,1.09,0,0,0-1.09-1.09H57.71a1.09,1.09,0,0,0-1.09,1.09v3.4a1.09,1.09,0,0,0,1.09,1.09H61.9A1.09,1.09,0,0,0,63,38.78Zm-2.39,2.1H59V35.88H60.6Z"/><path class="cls-1" d="M63,42.56a1.09,1.09,0,0,0-1.09-1.09H57.71a1.09,1.09,0,0,0-1.09,1.09V46A1.09,1.09,0,0,0,57.71,47H61.9A1.09,1.09,0,0,0,63,46Zm-2.39,2.1H59v-.8H60.6Z"/><path class="cls-1" d="M62.09,49.44H57.74c-.6,0-1.13.26-1.13.86v3.26c0,.6.52,1.46,1.13,1.46h4.35c.6,0,.9-.86.9-1.46V50.3C63,49.7,62.7,49.44,62.09,49.44ZM60.6,52.63H59V51H60.6Z"/><path class="cls-1" d="M63,57.71a1.09,1.09,0,0,0-1.09-1.09H57.71a1.09,1.09,0,0,0-1.09,1.09v3.4a1.09,1.09,0,0,0,1.09,1.09H61.9A1.09,1.09,0,0,0,63,61.11Zm-2.39,2.1H59V59H60.6Z"/><path class="cls-1" d="M67.78,2.26A2.26,2.26,0,0,0,65.52,0H2.26A2.26,2.26,0,0,0,0,2.26V65.52a2.26,2.26,0,0,0,2.26,2.26H65.52a2.26,2.26,0,0,0,2.26-2.26ZM52.22,7.84l-37.07,0V2.39H52.3ZM15.47,60l37.16.06v5.3H15.31Zm49.92,5.43s-.07-.07-.11-.07H54.22v-5.3a1.74,1.74,0,0,0-1.92-1.88h-37c-1.2,0-2.55.68-2.55,1.88v5.3H2.33s.06.11.06.07V2.5s-.11-.11-.06-.11H12.76V7.86a2.82,2.82,0,0,0,2.55,2.5h37c1.2,0,1.92-1.3,1.92-2.5V2.39H65.28a.15.15,0,0,1,.11.11v63Z"/><path class="cls-1" d="M54.22,14.22A2.26,2.26,0,0,0,52,12H15a2.26,2.26,0,0,0-2.26,2.26V53.56A2.26,2.26,0,0,0,15,55.82H52a2.26,2.26,0,0,0,2.26-2.26ZM51.83,53.35a.07.07,0,0,1-.07.07H15.22a.07.07,0,0,1-.07-.07V14.43a.07.07,0,0,1,.07-.07H51.76a.07.07,0,0,1,.07.07Z"/></g></svg>