<svg xmlns="http://www.w3.org/2000/svg" viewBox="0 0 53.58 31.29"><defs><style>.cls-1{fill:#919191;}</style></defs><title>logo-konica</title><g id="Diseño"><g id="g10"><g id="g12"><path id="path24" class="cls-1" d="M26.33,0C32,0,36.83,3.15,38.59,7.51c.05.14,0,.28-.15.28l-5.85.12H20.06l-5.85-.12c-.13,0-.2-.12-.15-.25C15.83,3.18,20.66,0,26.33,0"/><path id="path26" class="cls-1" d="M26.33,9.12c2.59,0,11,.18,12.6.21a.17.17,0,0,0,.18-.2c0-.15-.19-.72-.23-.84a.18.18,0,0,0-.19-.14l-12.36.69L14,8.14a.18.18,0,0,0-.2.14c0,.12-.2.69-.22.84a.17.17,0,0,0,.18.2c1.61,0,10-.21,12.59-.21"/><path id="path28" class="cls-1" d="M26.33,10.68c3.8,0,11.29.29,12.84.33.12,0,.17-.06.17-.15s-.05-.75-.07-.87a.22.22,0,0,0-.24-.2c-.12,0-8.8.5-12.69.53s-12.57-.53-12.69-.53a.22.22,0,0,0-.24.2c0,.12-.07.68-.07.87s.05.15.17.15c1.55,0,9-.35,12.84-.33"/><path id="path30" class="cls-1" d="M26.33,22.54c5.67,0,10.5-3.15,12.27-7.51.05-.13,0-.26-.15-.26l-5.85-.1H20.06l-5.85.1c-.13,0-.2.11-.15.24,1.77,4.36,6.6,7.52,12.27,7.52"/><path id="path32" class="cls-1" d="M26.33,13.42c2.59,0,11-.19,12.6-.21a.17.17,0,0,1,.18.2c0,.14-.19.72-.23.84a.18.18,0,0,1-.19.15l-12.36-.69L14,14.39a.18.18,0,0,1-.2-.15c0-.11-.2-.69-.22-.84a.17.17,0,0,1,.18-.2c1.61,0,10,.21,12.59.21"/><path id="path34" class="cls-1" d="M26.33,11.86c3.8,0,11.29-.29,12.84-.33.12,0,.17.06.17.15s-.05.75-.07.87a.22.22,0,0,1-.24.2c-.12,0-8.8-.5-12.69-.53s-12.57.53-12.69.53a.22.22,0,0,1-.24-.2c0-.12-.07-.69-.07-.87s.05-.15.17-.15c1.55,0,9,.35,12.84.33"/><path id="path36" class="cls-1" d="M6.39,30.55A1.49,1.49,0,0,1,5,28.85c0-1.3.85-1.71,1.39-1.71s1.39.41,1.39,1.71S6.93,30.55,6.39,30.55Zm0-4.06a2.37,2.37,0,0,0,0,4.73,2.37,2.37,0,0,0,0-4.73"/><path id="path38" class="cls-1" d="M41.33,30.55a1.49,1.49,0,0,1-1.4-1.7c0-1.3.85-1.71,1.4-1.71s1.4.41,1.4,1.71S41.87,30.55,41.33,30.55Zm0-4.06a2.37,2.37,0,1,0,2.27,2.37,2.32,2.32,0,0,0-2.27-2.37"/><path id="path40" class="cls-1" d="M0,26.37H.62v4.92H0Z"/><path id="path42" class="cls-1" d="M14.15,26.37h1.23v4.92H14.15Z"/><path id="path44" class="cls-1" d="M32.61,26.37h.61v4.92h-.61Z"/><path id="path46" class="cls-1" d="M19.07,27h.31l0-.47a3.54,3.54,0,0,0-.5,0c-1.75,0-2.87,1-2.87,2.29s1.12,2.28,2.87,2.28a4.88,4.88,0,0,0,.5.06l0-.49H19A1.86,1.86,0,1,1,19,27"/><path id="path48" class="cls-1" d="M12.59,29.17a.45.45,0,0,0,0-.05,10.52,10.52,0,0,0-2.66-2.75h-.7v4.92h.91l0-3.57s0,0,0,0a6.32,6.32,0,0,1,2.58,3.54h.83V26.37h-1l0,2.81"/><path id="path50" class="cls-1" d="M37.58,29.17s0,0,0-.05a10.49,10.49,0,0,0-2.66-2.75h-.46v4.92h.67l0-3.57s0,0,0,0a6.32,6.32,0,0,1,2.58,3.54h.45V26.37h-.59l0,2.81"/><path id="path52" class="cls-1" d="M19.69,31.29h.76s1.21-2.88,1.26-3l1.5,3h.93l-2.41-4.6-2,4.6"/><path id="path54" class="cls-1" d="M51.17,26.69l-2,4.6h.78s1.21-2.88,1.26-3c.06.1,1.5,3,1.5,3h.93l-2.42-4.6"/><path id="path56" class="cls-1" d="M2.08,28.41c.48-.49,1.76-2,1.76-2h-1L1,28.54A5.54,5.54,0,0,1,3.1,31.29H4a5.48,5.48,0,0,0-1.88-2.88"/><path id="path58" class="cls-1" d="M44.91,26.37H44.3v4.92h2.46v-.61H44.91V26.37"/><path id="path60" class="cls-1" d="M49.83,26.37H46.76V27h.62v4.3H48.6V27h1.23v-.62"/><path id="path62" class="cls-1" d="M29.12,28.81a6.48,6.48,0,0,0-.28.67h0a6.79,6.79,0,0,0-.27-.66,11.43,11.43,0,0,0-1.38-2.24,31.11,31.11,0,0,0-1.26,4.71h.82l.65-3.05a.45.45,0,0,1,0-.07,8.41,8.41,0,0,1,1.16,2.51h.54c.3-.62.88-2.12,1.16-2.56a.81.81,0,0,1,0,.11l.66,3.07h.82a31.43,31.43,0,0,0-1.26-4.71,11.06,11.06,0,0,0-1.38,2.24"/></g></g></g></svg>