<svg xmlns="http://www.w3.org/2000/svg" viewBox="0 0 89.53 11.71"><defs><style>.cls-1{fill:#919191;}</style></defs><title>logo-kodak</title><g id="Diseño"><path class="cls-1" d="M49.22,1.85h2.46c1.86,0,3.06.9,3.06,2.77s-1.39,2.77-3.16,2.77H50.45v4.31H49.22Zm1.23,4.31h.45c1.47,0,2.86-.06,2.86-1.85,0-1.24-.71-1.85-2-1.85H50.45Z"/><path class="cls-1" d="M56.6,5.85a9.72,9.72,0,0,0-.24-1.54h.86V5.54h.06C57.6,4.92,58.17,4,59.09,4a1.28,1.28,0,0,1,.58.13v.94C59.68,5,59.25,5,59,5c-1.42,0-1.8,1.59-1.8,2.89v3.8H56.6Z"/><path class="cls-1" d="M64,4.07c2.34,0,3.37,1.81,3.37,3.78s-1,3.78-3.37,3.78-3.37-1.81-3.37-3.78S61.64,4.07,64,4.07Zm0,6.79c1.56,0,2.39-1.35,2.39-3s-.84-3-2.39-3-2.39,1.34-2.39,3S62.42,10.86,64,10.86Z"/><path class="cls-1" d="M69.52,1.85h.62v8.61h4.31v1.23H69.52Z"/><path class="cls-1" d="M80,10.46h.28A3.07,3.07,0,0,1,78,11.71a2.16,2.16,0,0,1-2.38-2.22c0-2.42,2.58-2.72,4.45-2.72H80V6.69c0-1.23-.4-1.85-1.61-1.85a3.6,3.6,0,0,0-2.09.59V4.56a6.73,6.73,0,0,1,2.25-.49c1.78,0,2.67.81,2.67,2.69v4.93H80ZM80,8h0c-1.54,0-3.38.06-3.38,1.65,0,.95.57,1.26,1.39,1.26,2.09,0,2-1.87,2-2.65Z"/><path class="cls-1" d="M85.69,11.51c-.32,0-.87,0-1.33,0s-.7-.07-1.31-.11V.62h1.23V4.73l.12-.08a3.3,3.3,0,0,1,.9-.5,3.62,3.62,0,0,1,1.32-.22,2.56,2.56,0,0,1,2.15,1,4.36,4.36,0,0,1,.75,2.7,4.33,4.33,0,0,1-.88,2.86A3.68,3.68,0,0,1,85.69,11.51Zm.66-6.76a3.66,3.66,0,0,0-1.13.17,3.18,3.18,0,0,0-.9.43l0,0V10.5l.05,0a3.53,3.53,0,0,0,1.56.29,2.2,2.2,0,0,0,2-.93,3.78,3.78,0,0,0,.61-2.14,3.7,3.7,0,0,0-.56-2.21A1.85,1.85,0,0,0,86.36,4.75Z"/><path class="cls-1" d="M4.77,6,9.27.62H6.08L2.46,4.74V.62H0V11.69H2.46V6.78l3.92,4.91H9.58ZM15.28,7.25a2.13,2.13,0,1,1-2.13-2.13,2.13,2.13,0,0,1,2.13,2.13m2.12,0a4.33,4.33,0,1,0-4.33,4.33A4.33,4.33,0,0,0,17.4,7.29m7.27,0a2.13,2.13,0,1,1-2.13-2.13,2.13,2.13,0,0,1,2.13,2.13m2.4.13V0H24.61V3.44A4.77,4.77,0,0,0,22.55,3a4.37,4.37,0,0,0-4.37,4.34,4.45,4.45,0,0,0,8.9,0m6.15,1.24a1.35,1.35,0,0,1-1,1.31H30.85a.91.91,0,0,1-1-.93c0-.59.44-.92,1.12-.92h2.21v.62m2.46,0v-3A3.47,3.47,0,0,0,32,3c-2.72,0-3.06.39-3.06.39V5.23A8.16,8.16,0,0,1,31.49,5c2,0,1.8,1.23,1.8,1.23s-5.68-.81-5.68,2.63c0,0,.07,2.78,3.93,2.78s4.13-2.78,4.13-2.78m5.79-1.33L44.7,3.69h-3L39.37,6.51V0H36.91V11.69h2.46V8.22l2.43,3.46H45Z"/></g></svg>