<svg xmlns="http://www.w3.org/2000/svg" viewBox="0 0 36.91 26.04"><defs><style>.cls-1{fill:#919191;fill-rule:evenodd;}</style></defs><title>logo-noritsu</title><g id="Diseño"><path class="cls-1" d="M11.93,9.66l.07,0,.07,0,.07,0,.07,0,.07,0,.07,0,.07,0,.07,0,.07,0,.07,0,.07,0,.12,0,.13,0,.13,0,.13,0,.13,0H14l.14,0,.13,0,.13,0,.13.05.12.06.11.06.11.07.1.08.08.09.07.1.05.1,0,.1,0,.1v.22l0,.09,0,.09,0,.09,0,.08-.05.09L15,10.9l-.07.07-.08.08-.09.07-.09.08-.1.07-.12.06-.15.06-.19,0-.33,0-.95-.35.34-.4H13l-.06,0-.06,0-.06,0-.06,0-.07,0-.07,0-.07,0-.08,0-.08,0,0,0,0,0,0,0,0,0,0,0,0,0,0,0,0,0,0,0,0,0,0,0,0,0,0,0,0,0,0,0,0,0,0,0,0,0,0,0,0,0,0,0,0,0,0,0,0,0,0,0,0,0,0,0,0,0-.05.05,0,0,0,.05-.05.05,0,0,0,0,0,0,0,0,0,0,0,0,0,.05,0,.05,0,.05,0,.05,0,.05,0,.05,0,.06,0,.06,0,.06,0,.06-.63.8-.43.57-.44.63-.48.72L8.12,16l-.24.19-.43.09-.53-.12-.28-.35,0-.26.1-.26,0-.14v-.31l.08-.05.08,0v0l-.08,0,0,0,0,0v-.51l-.07-.55-.09-.64L6.6,13l-.05.07,0,.06,0,.06,0,.06,0,.06,0,.06,0,.06,0,.05,0,.06,0,.05,0,.05,0,.05,0,0,0,0,0,0,0,0L5.76,14l-.12.13-.12.13-.12.12-.12.12-.12.12L5,14.76l-.12.11L4.77,15l-.12.1-.12.1-.13.09-.13.09-.13.09L4,15.52l-.13.08-.13.07-.13.07-.13.06-.13.06-.13.06L3.09,16l-.14,0-.14,0-.14,0-.14,0-.14,0-.14,0-.15,0H1.23l-.14,0-.14,0-.14,0-.13,0L.55,16,.42,16l-.11-.08-.1-.09-.08-.1-.06-.1,0-.1,0-.11v-.27l0-.15.09-.16.15-.14.2-.12.22-.07.22,0h.23l.23,0,.22,0,.21.08.19.12.14.14.07.12H2.3l.06,0,.06,0,.07,0,.07,0,.07,0,.07,0,.08,0,.08,0,.08,0,.08,0,.08-.05.08-.06.09-.06.09-.06.09-.07.09-.07.09-.08.09-.08L3.81,14l.1-.09L4,13.8l.1-.1.1-.1.1-.1.1-.11,0,0,0,0,0,0,0,0,0,0,0,0,0-.05,0,0,0-.05,0-.05,0-.05,0-.06,0-.06,0-.06,0-.06,0-.06.49-.67.48-.69.05-.08L6.16,11l0-.07,0-.07,0-.07,0-.06,0-.06,0-.06,0-.05,0-.05,0,0,0,0,0,0,0,0,0,0,0,0,.29-.51L7,9.69l.08-.1.09-.09.1-.08.12-.08.13-.07.14-.06.19-.06.44-.06.46.2.19.3,0,.25-.1.21,0,0,0,0v.68l0,.51.14.94v.05h0l.05-.07L9,12.16l.05-.06L9.11,12,9.16,12l.05-.06.05-.06.05-.06.05-.06.05-.05.05-.06.05-.06.05-.06.06-.06.05-.06.06-.06.06-.06.06-.06.06-.06.06-.06L10,11,10.1,11l.06-.05.06-.05.06-.06.06-.05.07-.06.08-.07.08-.07.08-.06.08-.06.08-.06.08-.06.08-.06L11,10.2l.08-.06.08-.05.08-.05.08-.05.08-.05.09,0,.08-.05.06,0,.06,0,.06,0,.06,0,.06,0Zm4.92,2.41h0l0-.06a2.08,2.08,0,0,1,.33-.48,1.35,1.35,0,0,1,.55-.31A7.46,7.46,0,0,1,18.88,11l-.35.91.75,0,1.27,0v.23c-.62.51-1.43,1-2,1.54s-.77.91-.77,1.19.14.4.43.52a3.15,3.15,0,0,0,1.2.18h.08a.7.7,0,0,1,0-.17,3.65,3.65,0,0,1,.7-1.12l1.6-2a17.14,17.14,0,0,0,1.87-.13L22,14.2a3.07,3.07,0,0,0-.63.94c-.08.31.18.53.77.63.17,0,.4.06.68.08a.76.76,0,0,1,.06-.29,5,5,0,0,1,.87-1.24l1.69-1.95-1.14,0,.73-.59.87,0L27.5,10q.91-.08,1.84-.23l-1.9,2.12,1.23,0-.32.29-.38.34c-.33,0-.66,0-1-.05l-1.12,1.27a6.34,6.34,0,0,0-1,1.29q-.26.67,1.23.67c.17,0,.38,0,.64,0-.09-.09,0-.18-.06-.26s0-.37,0-.65v-.13c1.23-1,2.31-1.68,2.85-2.07a.77.77,0,0,1,.83-.66,1.08,1.08,0,0,1,.34.06l0,.1a.4.4,0,0,0,0,.18,1.17,1.17,0,0,0,.12.38c.08.19.14.34.19.47a1.31,1.31,0,0,1,.07.43,1.12,1.12,0,0,1-.25.69,2.69,2.69,0,0,1-.73.63,8.18,8.18,0,0,1-1.23.62l.48,0a2.74,2.74,0,0,0,.74-.11,5.91,5.91,0,0,0,.81-.3l.55-.27,1.08-2.66c.47-.09,1-.21,1.46-.34l-1.14,2.62a2.61,2.61,0,0,0-.26.78.26.26,0,0,0,.11.21.48.48,0,0,0,.28.08c.29,0,.64-.29,1-.88a13.69,13.69,0,0,0,1.29-2.45l1.41-.34-1,2.39a3.44,3.44,0,0,0-.32,1c0,.28.22.42.65.42a4.26,4.26,0,0,0,.83-.14l0,.1a8.21,8.21,0,0,1-2.34.75.6.6,0,0,1-.41-.14.46.46,0,0,1-.16-.36,1.57,1.57,0,0,1,.17-.58l.33-.74a8.94,8.94,0,0,1-1.38,1.26,2.69,2.69,0,0,1-1.47.56c-.31,0-.47-.17-.47-.52a1.74,1.74,0,0,1,.09-.49,11.18,11.18,0,0,1-1.3.66,3.92,3.92,0,0,1-1.46.35A2.64,2.64,0,0,1,27,15.84l-.17-.12h0q-2,.4-2.44.47a5.39,5.39,0,0,1-.87.08.85.85,0,0,1-.68-.2c-.84.1-1.41.16-1.71.18a3.71,3.71,0,0,1-.9,0,.9.9,0,0,1-.57-.29l-.05-.08-1,.21a10,10,0,0,1-1.66.22,1.47,1.47,0,0,1-.81-.19.6.6,0,0,1-.3-.52c0-.31.24-.65.73-1a26.8,26.8,0,0,1,2.88-1.78c-.5,0-1,0-1.37,0l-.16.23a.81.81,0,0,1-.45.27,2.9,2.9,0,0,1-.78.12L17,12.8c-.21,0-.31-.15-.31-.32a.5.5,0,0,1,0-.16l-.32.2c0,.18,0,.3,0,.36a3,3,0,0,1-1.22,2.26,5.18,5.18,0,0,1-1.4.83,4,4,0,0,1-1.47.3c-.87,0-1.31-.37-1.31-1.1a2.22,2.22,0,0,1,.72-1.54,6.15,6.15,0,0,1,2-1.29c-.27-.14-.41-.23-.41-.28s.08-.07.23-.08a5.25,5.25,0,0,0,.91-.21,4.11,4.11,0,0,1,.86-.22,1,1,0,0,1,.86.47c.21,0,.42,0,.63,0Zm12.73,1.79-.15-.79q-.52.38-2.21,1.46a1.93,1.93,0,0,1,.68.19,3.62,3.62,0,0,1,.52.46,2.23,2.23,0,0,0,.87-.41A.9.9,0,0,0,29.6,14s0-.07,0-.1,0-.06,0-.09Zm-5.3-4.39a.79.79,0,0,1,.53.3.63.63,0,0,1,.09.55.77.77,0,0,1-.42.5,1.12,1.12,0,0,1-.74.11.85.85,0,0,1-.54-.3.58.58,0,0,1-.11-.53.79.79,0,0,1,.43-.51,1.19,1.19,0,0,1,.76-.12ZM14,12.44a3.5,3.5,0,0,0-.92,1,2.31,2.31,0,0,0-.36,1.15,1,1,0,0,0,.3.73,1.08,1.08,0,0,0,.77.28,1,1,0,0,0,.87-.41A2.23,2.23,0,0,0,15,13.89a3.62,3.62,0,0,0-.27-1.23,3.66,3.66,0,0,1-.8-.22Z"/><path class="cls-1" d="M18.61,3.24a9.75,9.75,0,0,1,2.59.35,9.12,9.12,0,0,1,.4,5.32,4.51,4.51,0,0,0-.41-.27,13.88,13.88,0,0,0-3.76-5.33,9.88,9.88,0,0,1,1.18-.07Zm4.21,1A9.88,9.88,0,0,1,25.45,6a10.17,10.17,0,0,1-1.11,3.18l.09,0,.1,0,.1,0,.09,0,.09.05.08.06.07.07.06.08.05.09,0,.09,0,.09,0,.1v.33a25,25,0,0,0,1.41-3,9.77,9.77,0,0,1,1.23,2.34h1.44l.2,0,1.87-1.29-.93-1.59-2.18.59a10.8,10.8,0,0,0-.71-1l1.3-1.84L27.34,3.1l-1.7,1.17a11,11,0,0,0-1.13-.8l.52-2L23.26.82l-1.1,1.55A11.42,11.42,0,0,0,20.72,2l-.21-2-1.9,0-.47,1.8A10.84,10.84,0,0,0,16.67,2L15.76.16,14,.76l.21,1.95a11.6,11.6,0,0,0-1.24.63L11.35,1.85,9.88,3l1,1.92a11.28,11.28,0,0,0-.85.91l-2.18-1-1,1.56L8.55,8c-.13.26-.25.53-.36.81l.1,0,.6.26.28.44,0,.38L9,10.15l0,0v.61l0,.48q.08-.45.2-.87a11.53,11.53,0,0,1,1.59-.32l0,0,.08-.06L11,9.93l.08-.06.09-.06.09-.05.09-.05.09-.05.09-.05.06,0,.07,0,.07,0,.07,0,.07,0,.07,0,.07,0,.07,0,.07,0,.07,0,.07,0,.07,0,.08,0,.08,0,.08,0,.08,0,.13,0,.14,0L13,9l.14,0,.14,0h.59L14,9l.16,0,.15,0,.15,0,.14.05.13.06.13.08.12.08.12.1.1.11.09.12.07.13.05.13,0,.13,0,.15v.14l0,.12,0,.12,0,.11-.06.11-.07.1-.08.1-.08.08-.09.09-.1.08-.1.08h0l.07,0,.06,0h.65l.08,0,.07,0,.07,0,.07,0,.07,0,.07,0,.07,0,.06,0,.06.05.06.06.05.06,0,0h.27l0,.14,0,.14h0l0-.21,0-.14,0-.1,0-.08,0-.07,0-.06.05-.05.07-.07.07-.06.08-.05.08-.05.08,0,.09,0,.09,0,.09,0h1.07l.52-.06-.34.75a1.19,1.19,0,0,0,.29,0h.16l.05.12.06.06.06,0,.07,0h.69l.24,0v.63l0,.12v0l0,0-.05,0-.06,0-.06,0-.07,0-.07,0-.06,0-.05,0a1.4,1.4,0,0,1,0,.21,1.45,1.45,0,0,1-1.45,1.45,1.31,1.31,0,0,1-.32,0h0l0,.07,0,.06,0,.06,0,.05,0,0v.21l0,0,0,0,0,0,0,0,.06,0,.08,0,0,0,0,0,.05,0h.82v0l0-.06,0-.06,0-.07,0-.07,0-.07,0-.07,0-.08,0-.08.05-.08.06-.08.06-.08.06-.09.07-.09.07-.09.07-.09L21.74,12h1.91l.46-.06a9.92,9.92,0,0,0,.69-.92l-.08.06-.1.06-.05,0-.05,0-.05,0-.05,0-.05,0-.06,0h-.17l-.06.14-.06.14h-.06l-.06-.14-.06-.07-.06,0-.06,0-.1,0-.1,0-.1,0-.09,0L23.23,11l-.08-.06-.07-.07L23,10.79,23,10.71l0-.09,0-.09,0-.1v-.25l-.07-.1a14.61,14.61,0,0,0,.07-5.89Zm1.09,8.48-.22.07v-.06H23.6l-1.45,1.68-.07.08-.06.07-.06.07-.05.07-.05.07,0,.06,0,.06,0,.05,0,.05,0,0,0,0,0,0,0,0v.14h0v0l0,0,0,0,0,0,.05,0,.06,0,.07,0,.08,0,.09,0,.1,0h.42l0,0,0-.05,0-.07,0-.07,0-.07,0-.07,0-.07,0-.08.05-.08.06-.08L23,14.8l.06-.09.07-.09.07-.09.08-.09.08-.09.08-.1.09-.1,1.31-1.51h-.49l-.42,0Zm4.36-1.18v.08h.29l.77,0-.84.75-.14.13c0,.16,0,.33,0,.49h0l.16-.11.08-.05.08-.05.07-.05.07-.05.07,0,.07,0,.12-.09.06,0,0,0h0l0-.09,0-.09,0-.08L29.4,12l.06-.07.07-.06.07-.06.08-.05.08,0,.08,0,.09,0,.09,0h.64l.06,0,.16,0L31,12l0,.12h0l0,0h0v.1l0,0,0,.06,0,.06,0,.07,0,.07,0,.06,0,.06,0,.06,0,.06,0,.05v0l.75-.2.22-.54L32,10.85l-2.4-.18c0-.22-.1-.5-.16-.71L28,11.47h0l.08.05,0,0s.07,0,.11-.06Zm.06,2.61c0,.19,0,.38-.08.56l0,0,.07.06.08.07.05.05.05,0,.06,0,.06,0,.05,0,.05,0,0,0,0,0,0,0,0,0,0,0,0,0,0,0,0,0,0,0,0,0,0,0,0,0,0,0,0,0,0,0,0,0,0,0v-.22l-.09,0-.09,0v0h0l.08,0h.07l-.07-.41h0l-.05,0-.05,0-.06,0-.06,0-.06,0-.07,0-.07,0-.07,0-.07,0-.07,0-.08.05-.08.05-.08.05,0,0Zm-1.29,2c-.32,0-.64,0-1,0l-.1,0-.1,0-.1,0-.09,0-.09,0-.09,0-.08,0h-.08l-.08,0H23.75l-.05-.06-.05-.06h-.18l-.07.06-.07,0h-.24l-.06,0-.05,0-.05,0-.05,0,0,0,0,0H21L21,16.45l-.07-.06h-.13l-.06.06-.06,0H20l-.05,0,0,0,0,0,0,0,0,0,0,0,0,0,0,0,0,0,0,0,0,0,0,0h-.84l-.07,0H17.15l0-.06,0-.06h-.18l-.07.06-.07,0h-.37l-.06,0-.06,0-.05,0-.05,0-.05,0,0,0-.05,0-.09-.06-.08-.07-.07-.08L15.7,16l0-.1,0-.1,0-.11v-.27l0-.08,0-.08,0-.08,0-.08,0-.08.05-.07.06-.08,0-.05,0,.05-.07.07-.07.07-.07.07-.07.07-.08.07-.08.07-.08.07-.08.07-.08.06-.08.07-.09.06-.09.06-.09.06-.09.06-.09.05-.09.05-.09.05,0,0c.08.11.15.21.23.3a14.84,14.84,0,0,0,.1,5.77,9.94,9.94,0,0,1-3.19-2.19,9.33,9.33,0,0,1,1.92-3.5h0l-.1,0-.1,0-.1,0-.1,0-.1,0-.1,0-.1,0h-.19l-.1-.05-.1-.06h-.1l-.17.06-.16,0h-.18c-.44.68-.84,1.41-1.23,2.15A9.74,9.74,0,0,1,9,15.08l-.12.17L8.45,16l-.14.2L8,16.41l-.08,0,0,.05-2,1.38.93,1.59L9,18.87a11.45,11.45,0,0,0,.71,1l-1.3,1.84,1.44,1.19,1.7-1.17a11.54,11.54,0,0,0,1.13.8l-.52,2,1.78.65,1.1-1.55a11.48,11.48,0,0,0,1.44.38l.21,2,1.9,0,.47-1.8a10.8,10.8,0,0,0,1.48-.16l.91,1.79,1.79-.59L23,23.34a11.6,11.6,0,0,0,1.24-.63l1.59,1.49,1.47-1.14-1-1.92a11.11,11.11,0,0,0,.85-.91l2.18.95,1-1.56-1.71-1.48c.1-.2.19-.5.28-.5H29c.07-.61.12-.42.18-.54l2.45.13.13-.67h-.12l-.14,0-.14,0-.13-.07-.11-.1L31,16.19,31,16.05l0-.14,0-.15v0l-.1,0-.11,0-.1,0-.09,0-.09,0-.08,0-.08,0-.08,0-.08,0-.08,0-.08,0-.11,0-.11,0-.11,0-.1,0-.1,0-.1,0-.1,0-.1,0-.1,0-.1,0-.09,0h-.87l-.1,0-.1,0-.1,0-.1,0-.1,0-.1,0-.1,0-.1,0-.09,0-.09,0,0,0Zm.3,1.29a9.82,9.82,0,0,1-2,2.73,9,9,0,0,1-4.23-2.68,5.26,5.26,0,0,0,1.18-.89,13.16,13.16,0,0,0,5.11.84ZM24,21.16a9.86,9.86,0,0,1-2.53,1.21,9.32,9.32,0,0,1-3.29-4.28l.4,0A5.07,5.07,0,0,0,19.67,18,15.54,15.54,0,0,0,24,21.16Zm-4.29,1.58a9.63,9.63,0,0,1-1.14.07,9.87,9.87,0,0,1-2.2-.25,9.12,9.12,0,0,1-.51-5.24,4.92,4.92,0,0,0,.7.37,15.5,15.5,0,0,0,3.16,5Zm-10-8.65a9,9,0,0,1,1.94-.76l0,0,.05,0,.05,0,.05,0,.06,0,.06,0,.06,0,.06,0,.06,0,.06,0,.06,0,.06,0,.06,0,.06,0,.07,0,.07,0,.07,0,.07,0,.07,0,.07,0,.07,0,.07,0,.08,0,.08,0,0,0,0,0-.06-.08,0-.13,0-.14.07-.09.07,0,.06,0,.06,0h.32l-.08,0a10.91,10.91,0,0,0-2.14.41l0,0,0,0,0,0,0,0,0,0,0,0,0,0-.05.05,0,0,0,0,0,0,0,0,0,0,0,0,0,0,0,0,0,.05,0,.05,0,.05,0,.05,0,.05,0,.06,0,.06,0,.06-.62.8,0,0Zm3.77-.88a5.17,5.17,0,0,0,.15,1,8.79,8.79,0,0,0-.68.68h0v0l0,0,0,0,0,0,0,0,0,0,0,0,0,0,0,0,0,0,0,0,0,0,0,0,0,0,0,0h.7l0,0,0,0,0,0,0,0,0,0,0,0,0,0,0,0,0,0,0,0,0-.07,0-.06,0-.07,0-.07,0-.07,0-.07,0-.07,0-.07,0-.07,0-.08,0-.08v-.92l0-.07,0-.07,0-.07,0-.08,0-.08,0-.08v0h-.19l-.05,0h-.11l-.05,0-.05,0-.05,0-.05,0h0l-.06.05-.06.05-.06.05-.06.06L13.7,13l-.05.06-.05.06-.05.06v0ZM9.77,8.84a9.83,9.83,0,0,1,1.88-2.68,9.17,9.17,0,0,1,4.9,2.21,5.1,5.1,0,0,0-1.25.8,15.77,15.77,0,0,0-5.53-.33ZM13,5a9.73,9.73,0,0,1,2.58-1.3A9.24,9.24,0,0,1,19.42,8a5,5,0,0,0-.81-.06l-.45,0A14.89,14.89,0,0,0,13,5ZM6.5,15.29,5.23,15.2l0-.25.12-.11.13-.12.13-.12.13-.13.13-.13.13-.13.13-.14,0-.05,0,0,0,0,0-.05,0-.05,0-.05,0-.05,0-.05,0-.06,0,0v0l.07.54v.52l-.11,0-.11,0h0l.1,0,0,0,0,0v.22l0,.13,0,.09ZM5.91,11l-.68-.29.35-1.79L7.42,9h0l-.15.08-.14.09L7,9.31l-.11.11-.09.12-.08.11-.29.53,0,0,0,0,0,0,0,0,0,0,0,0,0,.05,0,.05,0,.06,0,.06,0,.06,0,.07,0,.07,0,.07,0,.06Zm24.66,3.79.15.06h0l0,0,0,0,0,0,0,0,0,0,0,0,0,0,0,0h0l0,0h0l0,0,.06,0,.06,0,.06,0,.06,0,.06,0,0,0ZM17.33,13.7l-.06-.12H16.6l0,0h0l0,.08,0,.08,0,.08,0,.08,0,.08,0,.08,0,.08,0,.08,0,.08,0,.07-.05.07-.05.07-.05.07L16,14.7l0,.05L16,14.7l.07-.07.08-.07.08-.07.09-.07.09-.07,0,0,.05,0,.05,0,.06,0,.06,0,.06,0,.07,0,.07,0,.07,0,.07,0,.08-.05.08,0,.08-.05.07,0Z"/></g></svg>