<svg xmlns="http://www.w3.org/2000/svg" viewBox="0 0 52.91 18.22"><defs><style>.cls-1{fill:#919191;}</style></defs><title>logo-epson</title><g id="Diseño"><path class="cls-1" d="M0,15H2.46v.62H.62v.62H2.46v.62H.62v.61H2.46V18H0Z"/><path class="cls-1" d="M3,15h.69l.75,1.17L5.28,15h.65l-1.1,1.48L6,18H5.3l-.83-1.27L3.63,18H3l1.17-1.6Z"/><path class="cls-1" d="M8.64,16.19c-.1-.62-.34-.81-.83-.81-.71,0-1,.55-1,1.18s.3,1.19,1,1.19c.51,0,.8-.33.84-.94h.57a1.52,1.52,0,0,1-1.41,1.38,1.58,1.58,0,0,1-1.59-1.71,1.47,1.47,0,0,1,1.59-1.57c.75,0,1.34.06,1.4,1.29Z"/><path class="cls-1" d="M9.84,15H12.3v.62H10.46v.62H12.3v.62H10.46v.61H12.3V18H9.84Z"/><path class="cls-1" d="M13.53,15H16v.62H14.15v.62h1.23v.62H14.15v.61H16V18H13.53Z"/><path class="cls-1" d="M16.61,15H18a1.35,1.35,0,0,1,1.46,1.54A1.35,1.35,0,0,1,18,18H16.61Zm.62,2.46h.57c.91,0,1.1-.26,1.1-.92s-.2-.92-1.1-.92h-.57Z"/><path class="cls-1" d="M22.15,16.84l-1-1.89h.67l.88,1.48L23.59,15h.65l-1.48,1.89V18h-.62Z"/><path class="cls-1" d="M27.54,16.49a1.59,1.59,0,1,1-3.17,0,1.59,1.59,0,1,1,3.17,0Zm-2.59,0c0,.64.3,1.26,1,1.26s1-.63,1-1.26-.3-1.26-1-1.26S24.95,15.85,24.95,16.49Z"/><path class="cls-1" d="M28.3,15h.62v1.8c0,.45-.13,1,.62,1s.62-.51.62-1V15h.62v2a1.23,1.23,0,1,1-2.46,0Z"/><path class="cls-1" d="M32,15h1.45c.72,0,1,.27,1,.83s-.62.74-.62.77h0c.62,0,.57.12.57.65s.13.82.25.82H34c-.09,0-.09-.26-.09-.42,0-.61-.12-.81-.66-.81h-.68V18H32Zm.62,1.23h.78c.37,0,.57,0,.57-.32s-.27-.3-.58-.3h-.77Z"/><path class="cls-1" d="M36.62,15h.61l.83,2.46h0L38.91,15h.59L38.37,18h-.64Z"/><path class="cls-1" d="M40,15h.62V18H40Z"/><path class="cls-1" d="M42,16.8a.75.75,0,0,0,.84.83c.51,0,.7-.19.7-.44a.35.35,0,0,0-.27-.38c-.23-.09-.53-.13-1-.26s-.73-.49-.73-.83a1.16,1.16,0,0,1,1.21-1.09c.69,0,1.27.33,1.27.94h-.58s-.32-.47-.71-.47-.61.16-.61.49a.47.47,0,0,0,.39.46l1,.27a.89.89,0,0,1,.65.85c0,.74-.66.92-1.32.92s-1.37-.07-1.38-1.3Z"/><path class="cls-1" d="M44.91,15h.62V18h-.62Z"/><path class="cls-1" d="M49.4,16.49a1.59,1.59,0,1,1-3.17,0,1.59,1.59,0,1,1,3.17,0Zm-2.59,0c0,.64.3,1.26,1,1.26s1-.63,1-1.26-.3-1.26-1-1.26S46.81,15.85,46.81,16.49Z"/><path class="cls-1" d="M50.45,15h.32l1.51,2.46h0V15h.62V18h-.68l-1.51-2.46h-.28V18h0Z"/><path class="cls-1" d="M36.63,0C33.06,0,31,2.7,31,6.36s2.06,6.34,5.63,6.34S42.26,10,42.26,6.36,40.21,0,36.63,0Zm0,10.55c-2.27,0-3.14-2.09-3.14-4.21s.88-4.21,3.14-4.21,3.14,2.09,3.14,4.21S38.9,10.57,36.63,10.57Z"/><polygon class="cls-1" points="0 0.19 9.23 0.19 9.23 2.65 2.46 2.65 2.46 5.11 8.61 5.11 8.61 6.96 2.46 6.96 2.46 10.04 9.23 10.04 9.23 12.5 0 12.5 0 0.19"/><path class="cls-1" d="M10.46,12.5h2.46V8.8h2C18,8.8,20,7.19,20,4.5S18,.19,14.93.19H10.46Zm4.47-6.15h-2V2.51l-.25.14h2.25c1.56,0,2.61.47,2.61,1.85S16.49,6.34,14.93,6.34Z"/><path class="cls-1" d="M45.76.19h-2.7V12.5h2.46v-5c0-1.33,0-2.5,0-3.54.29.6,1.19,2.48,1.59,3.15l3.2,5.39h2.62V.19H50.45V5.11c0,1.33,0,2.63.07,3.67-.29-.6-1.17-2.49-1.57-3.17Z"/><path class="cls-1" d="M22.85,8.19c0,1.85,1.34,2.33,2.76,2.33.93,0,2.44-.22,2.44-1.46s-1.85-1.52-3.62-2-3.66-1.18-3.66-3.4C20.77,1.2,23.1,0,25.29,0c2.52,0,4.84,1.42,4.84,3.88H27.64c-.09-1.23-1.2-1.81-2.47-1.81-.85,0-1.92.36-1.92,1.38s.61,1.08,3.64,1.86c.88.22,3.64.75,3.64,3.5,0,2.22-1.74,3.78-5,3.78-2.68,0-5.18-1.32-5.15-4.4Z"/></g></svg>