<svg xmlns="http://www.w3.org/2000/svg" viewBox="0 0 513.38 214.16"><defs><style>.cls-1{fill:#fff;}</style></defs><title>Artboard 27</title><g id="Diseño"><path class="cls-1" d="M482.61,72.53c-1.61.1-21.89-2.78-57.67,27.69l-.1-.32c5-12.49-12.89-23.78-17.47.17,0,0-19.52,25.93-18.69,3.05,2.52-7.86,6.25-9.46,9.54-10.07,0,0,18.61-5.64,9.22-12.89-3.51-3.2-7.17-2.06-8.54-2S377.17,84.58,370.15,106c-12.43,17.09-27.53,17.09-21.28,9.38C356,100.22,355,72.83,324.08,97.93c3.64-7.27,16.35-28.63-9.49-8.09s-44.24,43.63-46.78,31.32-13.12-10.27-14.14-5.7c-1.22.1-19.83-11-25.93,24.51,0,0-33.25,39.56-23.18-4.88-9.46-7.12-17.85-2.47-15-14.34,12.45-11.46-4.71-27.71-7.07,3,0,0-9.82,27.89-31.68,44.26s1.62-20.95,1.73-23c2.54-3.25,1.93-18-12.71-2.75-8.85,17-32.75,56.23-31,30.31,3.76-13,5.7-16,6.41-17.9,3.66-6.25-6.36-14.09-11.09-5.39,0,0-5,7.53-11.69,19.12C39.71,234.35-29.84,219.91,56.6,119c6.1-13.17-9-12.74-9-12.74s-7.58-.54-.76-15S61.48,39.91,117.41,8.79c41.69-14.64-5.19,23.29-5.19,23.29-1.53,2.14-.2,2.44,0,3.15s2.24.61,3.36,0,35.49-22.37,24.1-31.73c-5-4.68-12.91-3.36-15.35-3.25s-50,13.42-77.9,74.24c-20.34,36.71-11.29,40.68-4.58,39.66s15.29-.52,7,4.91c-64.63,56.72-61.63,100.6-11.34,94.55,0,0,18.81-1.73,55.88-37.58,0,0,8.69,29.9,33.25-2,5.49,8.54,22.73,16.32,54.92-34.17,6.25-8.85,7.47,5.29,7.47,5.29s-3.66,41.84,37.83,3.1c11.44,12.66,31.27,6.71,39.82-16.93,19.52.3,37.06-22,37.06-22l-27,65.59s.46,10.83,9.61,4.52c0,0,27.41-62.64,29.39-65.69s13.4-11.14,13.4-11.14,8.77-8.31,6.79,2.45-10.32,43.9,34.63,10.14c0,0,12.43,15.94,35.24-5.72,0,0,9.82,11.54,20.08-.25,12.87-9.36,30.26-36.36,81.81-24.46C524.19,86.38,501.52,72.76,482.61,72.53ZM253,141c-2.46,2.35-7.37,4.66-10.32-.25-5.29-7.32,5.59-15.56,5.59-15.56,1.63-.41,1-2.24,1.67-3.35s4.84-1.73,3.11.5,4.34,5.82,5.6,8.65C258.56,134.74,255,138.55,253,141Z"/><path class="cls-1" d="M74.64,44.92h13v2.61H77.75v8h9.13v2.57H77.75V69H74.64Z"/><path class="cls-1" d="M109.81,56.73c0,8.3-5,12.7-11.2,12.7-6.37,0-10.84-4.94-10.84-12.24,0-7.66,4.76-12.67,11.2-12.67S109.81,49.57,109.81,56.73Zm-18.71.39c0,5.15,2.79,9.77,7.69,9.77s7.73-4.54,7.73-10c0-4.79-2.51-9.8-7.69-9.8S91.1,51.83,91.1,57.12Z"/><path class="cls-1" d="M114.68,47.57h-7.33V44.92H125.2v2.65h-7.37V69h-3.15Z"/><path class="cls-1" d="M144.66,56.73c0,8.3-5,12.7-11.2,12.7-6.37,0-10.84-4.94-10.84-12.24,0-7.66,4.76-12.67,11.2-12.67S144.66,49.57,144.66,56.73Zm-18.71.39c0,5.15,2.79,9.77,7.69,9.77s7.73-4.54,7.73-10c0-4.79-2.5-9.8-7.69-9.8S125.95,51.83,125.95,57.12Z"/></g></svg>