<svg xmlns="http://www.w3.org/2000/svg" viewBox="0 0 33.5 17.42"><defs><style>.cls-1{fill:#919191;fill-rule:evenodd;}</style></defs><title>logo-3m</title><g id="Diseño"><path class="cls-1" d="M.66,6h4.7a1.76,1.76,0,0,1,.13-.85,2.33,2.33,0,0,1,2.2-1.36c1.07,0,2.1.48,2.05,1.59,0,.83-.66,1.2-1.65,1.29H5.82v3H7.6a2.13,2.13,0,0,1,1,.46,1.81,1.81,0,0,1-.79,3.34,2.42,2.42,0,0,1-2.6-1.36,5.14,5.14,0,0,1-.33-1.83H0c0,4.92,2.57,7.16,7.34,7.15,2.9,0,5.85-1,7-3.14,0,0,.1,0,.1,0V17h4.92V6.65L21.91,17h4.23L28.84,6.57,28.8,17H33.5V.43h-7.1l-2.35,9.79L21.63.43H14.43V3.7C13.2.88,10.49,0,7.84,0,3.08,0,.88,2.27.66,6Zm13.78,4c0-.63-1-1.21-1.73-1.75-.07-.06-.1-.09,0-.13A4.41,4.41,0,0,0,14,7c.18-.24.45-.5.45-.77V10Z"/></g></svg>