<svg xmlns="http://www.w3.org/2000/svg" viewBox="0 0 64.2 11.69"><defs><style>.cls-1{fill:#919191;}</style></defs><title>logo-mimaki</title><g id="Diseño"><polygon class="cls-1" points="10.53 6.54 10.53 0 8.07 0 0 11.69 3.23 11.69 8.07 4.82 8.07 10.56 10.53 6.54"/><rect class="cls-1" x="58.52" y="2.46" width="3.08" height="9.23"/><rect class="cls-1" x="19.76" y="2.46" width="2.46" height="9.23"/><polygon class="cls-1" points="57.93 2.46 54.7 2.46 51.75 6.55 51.75 2.46 48.67 2.46 48.67 11.69 51.75 11.69 51.75 7.02 51.75 6.8 54.7 11.69 57.93 11.69 54.7 6.54 57.93 2.46"/><polygon class="cls-1" points="18.52 11.69 18.52 0 16.05 0 7.98 11.69 11.21 11.69 16.07 4.82 16.07 11.69 18.52 11.69"/><path class="cls-1" d="M37,6a3.47,3.47,0,0,0-6.08-2.32,2.93,2.93,0,0,0-4.38-.36v-.9H23.45v9.23h3.08V6.48a1.24,1.24,0,1,1,2.46,0v5.21h2.46V6.48a1.55,1.55,0,0,1,3.08,0v5.21H37V6.15"/><path class="cls-1" d="M45,11.69h3.08V2.46H45v1a4.06,4.06,0,0,0-2.72-.94,4.55,4.55,0,0,0-4.54,4.58,4.6,4.6,0,0,0,4.6,4.58h2V9.23h-2a2.15,2.15,0,0,1,0-4.3h.27A2.35,2.35,0,0,1,45,7.38v4.31"/><path class="cls-1" d="M63.17,1.69a1,1,0,1,0,1,1,1,1,0,0,0-1-1m0,1.93a.9.9,0,1,1,.9-.9.9.9,0,0,1-.9.9"/><path class="cls-1" d="M63.31,2.85a.36.36,0,0,0,0-.72h-.49V3.3h.13v-1h.36a.22.22,0,1,1,0,.45h-.36l.54.58h.18l-.41-.45h.05"/></g></svg>