<svg xmlns="http://www.w3.org/2000/svg" viewBox="0 0 31.22 31.44"><defs><style>.cls-1{fill:#919191;}</style></defs><title>logo-hp</title><g id="Diseño"><path class="cls-1" d="M15.61,31.34c-.16,0-.31.11-.46.11l3.19-8.65h4.39a2.27,2.27,0,0,0,1.88-1.43l3.46-9.7a2.11,2.11,0,0,0-2-3H20L14.88,22.79h0l-2.9,8A15.57,15.57,0,0,1,11.39.68l-3,8.23V9l-5,13.77H6.74L11,11.1h2.49L9.23,22.79h3.31l3.94-11.07a2.16,2.16,0,0,0-2-3.08H11.71L14.91,0c.23,0,.47.05.7.05a15.64,15.64,0,0,1,0,31.28ZM25.05,11.1H22.57l-3.48,9.23h2.49Z"/></g></svg>