<svg xmlns="http://www.w3.org/2000/svg" viewBox="0 0 67.78 67.78"><defs><style>.cls-1{fill:#306cdc;}</style></defs><title>monte-grande</title><g id="Diseño"><path class="cls-1" d="M33.89,17.5A13.14,13.14,0,0,0,20.76,30.61,13.7,13.7,0,0,0,27.3,42V43.2a2.47,2.47,0,0,0-1.08,2.17A2.71,2.71,0,0,0,26.79,47a2.4,2.4,0,0,0-.56,1.53A2.65,2.65,0,0,0,29,51.17h9.84a2.65,2.65,0,0,0,2.73-2.63A2.56,2.56,0,0,0,41,47a2.52,2.52,0,0,0,.39-1.61,2.6,2.6,0,0,0-1.26-2.15V42a12.34,12.34,0,0,0,6.73-11.35A13,13,0,0,0,33.89,17.5Zm4.92,31.41H29c-.3,0-.55-.08-.55-.38s.25-.38.55-.38h9.84c.3,0,.55.08.55.38S39.11,48.91,38.81,48.91Zm0-3H29c-.3,0-.55-.08-.55-.38s.25-.38.55-.38h9.84c.3,0,.55.08.55.38S39.11,45.9,38.81,45.9ZM39,40.34l-.43.31v2.24H34.83V34.83a4.06,4.06,0,0,0,3.35-4.22,4.34,4.34,0,0,0-4.33-4.37,4.46,4.46,0,0,0-4.47,4.37,4.76,4.76,0,0,0,3.19,4.22v8.06h-3V40.64l-.62-.31a10.92,10.92,0,0,1,5-20.66,11,11,0,0,1,11,10.93A10.81,10.81,0,0,1,39,40.34ZM33.89,32.8a2.19,2.19,0,1,1,2.19-2.19A2.19,2.19,0,0,1,33.89,32.8Z"/><path class="cls-1" d="M67,40.66a44.3,44.3,0,0,0-3.82-10.49c2.55-8.72,1.42-16.81-3.66-21.89C55,3.75,48,2.23,40,4c-.79.17-1.57.38-2.36.61A44.31,44.31,0,0,0,27.12.8c-8.93-2-16.6-.28-21.6,4.72S-1.16,18.19.79,27.12A44.3,44.3,0,0,0,4.61,37.61C2,46.46,3.25,54.48,8.28,59.5c3.3,3.3,7.87,5,13.23,5a29.6,29.6,0,0,0,6.31-.72c.79-.17,1.57-.38,2.36-.61A44.27,44.27,0,0,0,40.66,67a32.77,32.77,0,0,0,7,.79c5.92,0,11-1.88,14.61-5.51C67.26,57.27,68.94,49.6,67,40.66ZM58,9.82c4.09,4.09,5.25,10.47,3.69,17.56a59.62,59.62,0,0,0-9.3-12,59.58,59.58,0,0,0-12-9.29C47.42,4.58,53.82,5.69,58,9.82Zm-55,16.83C1.14,18.47,2.61,11.51,7.06,7.06c3.22-3.22,7.73-4.87,13.08-4.87a30.45,30.45,0,0,1,6.51.74,40.91,40.91,0,0,1,8,2.67A50.56,50.56,0,0,0,17.19,17.19a55.22,55.22,0,0,0-5.22,6A4.87,4.87,0,0,0,10.39,23,4.91,4.91,0,0,0,7,31.43c-.52,1.08-1,2.15-1.39,3.22A40.93,40.93,0,0,1,2.93,26.65Zm10.19,1.23a2.73,2.73,0,1,1-2.73-2.73A2.73,2.73,0,0,1,13.12,27.88ZM9.82,58c-4-4-5.26-10.37-3.68-17.54a59.61,59.61,0,0,0,9.29,11.94,59.59,59.59,0,0,0,12,9.3C20.36,63.2,14,62.1,9.82,58ZM17,50.81A56.58,56.58,0,0,1,7,37.39,40.11,40.11,0,0,1,8.9,32.54a4.85,4.85,0,0,0,1.49.26,4.91,4.91,0,0,0,3.46-8.41,53.31,53.31,0,0,1,4.89-5.64A47.5,47.5,0,0,1,37.38,6.95,56.5,56.5,0,0,1,50.81,17a56.57,56.57,0,0,1,10,13.43A43.76,43.76,0,0,1,55,42a4.88,4.88,0,0,0-2-.41,4.92,4.92,0,0,0-4.92,4.92,4.88,4.88,0,0,0,.82,2.7A47.46,47.46,0,0,1,30.41,60.84,56.58,56.58,0,0,1,17,50.81Zm38.78-4.35A2.73,2.73,0,1,1,53,43.73,2.73,2.73,0,0,1,55.75,46.46Zm5,14.26c-4.45,4.45-11.4,5.92-19.59,4.13a40.91,40.91,0,0,1-8-2.67A50.49,50.49,0,0,0,50.51,50.67a4.86,4.86,0,0,0,2.51.71,4.92,4.92,0,0,0,4.92-4.92,4.87,4.87,0,0,0-1.21-3.2,47,47,0,0,0,5.45-10.12,41,41,0,0,1,2.68,8C66.64,49.31,65.17,56.27,60.72,60.72Z"/></g></svg>